<?xml version="1.0" encoding="UTF-8"?>
<svg width="18px" height="16px" viewBox="0 0 18 16" version="1.1" xmlns="http://www.w3.org/2000/svg" xmlns:xlink="http://www.w3.org/1999/xlink">
    <title>形状结合</title>
    <defs>
        <linearGradient x1="50%" y1="0%" x2="50%" y2="100%" id="linearGradient-1">
            <stop stop-color="#FFFFFF" offset="0%"></stop>
            <stop stop-color="#7EC2FF" offset="100%"></stop>
        </linearGradient>
    </defs>
    <g id="页面-1" stroke="none" stroke-width="1" fill="none" fill-rule="evenodd">
        <g id="集团报表" transform="translate(-295.000000, -191.000000)" fill="url(#linearGradient-1)" fill-rule="nonzero">
            <g id="编组-28" transform="translate(260.000000, 162.000000)">
                <g id="编组-5" transform="translate(20.000000, 13.000000)">
                    <path d="M32.055,25.71 L32.055,32 L15.945,32 L15.945,25.71 L23.995,28.72 L32.055,25.71 Z M30.145,16 L30.145,25.39 L23.995,27.68 L17.855,25.39 L17.855,16 L30.145,16 Z M27.325,23.15 L20.695,23.15 L20.695,24.09 L27.325,24.09 L27.325,23.15 Z M27.325,20.82 L20.695,20.82 L20.695,21.74 L27.315,21.74 L27.325,20.82 Z M21.315,18.39 C21.1479136,18.39 20.9876706,18.4563748 20.8695227,18.5745227 C20.7513748,18.6926706 20.685,18.8529136 20.685,19.02 C20.685,19.3679394 20.9670606,19.65 21.315,19.65 C21.6629394,19.65 21.945,19.3679394 21.945,19.02 C21.945,18.6720606 21.6629394,18.39 21.315,18.39 Z M27.325,18.58 L22.905,18.58 L22.905,19.51 L27.325,19.51 L27.325,18.58 Z" id="形状结合"></path>
                </g>
            </g>
        </g>
    </g>
</svg>